<?xml version="1.0" encoding="UTF-8"?>
<svg id="Layer_1" data-name="Layer 1" xmlns="http://www.w3.org/2000/svg" viewBox="0 0 250 100">
  <defs>
    <style>
      .cls-1 {
        fill: #154c92;
      }

      .cls-2 {
        fill: #0e82c0;
      }
    </style>
  </defs>
  <g>
    <path class="cls-1" d="M94.53,69.91l-2.08-9.19c-.28-1.27-.37-1.6-1.68-1.6h-.13v-.7c.72.07,1.6.07,2.63.07s1.95,0,2.8-.07v.68c-1.23,0-1.66.04-1.66.61,0,.44.11,1.09.33,2.03l1.9,8.51c3.17-7.92,4.62-11.97,4.64-12.03h.7c.53,1.71,1.09,3.39,1.71,5.08l2.54,7.07,2.01-7.24c.46-1.66.72-2.76.72-3.26,0-.66-.44-.72-1.68-.77v-.68c.59.04,1.31.07,2.14.07.96,0,1.75-.02,2.36-.07v.7h-.2c-1.05,0-1.27.7-1.82,2.58l-2.28,7.79c-.63,2.14-.98,3.61-1.09,4.35h-1.09c-.24-.81-.68-2.12-1.33-3.89l-2.95-8.05-2.98,7.44c-.66,1.64-1.16,3.15-1.58,4.51h-1.12c-.07-.52-.33-1.84-.81-3.94Z"/>
    <path class="cls-1" d="M118.71,71.59c0,1.29.07,1.47,1.47,1.47v.66c-.53-.04-1.07-.07-1.64-.07-.33,0-.85.02-1.55.07v-1.79l-1.95,1.44c-.48.37-1.16.59-1.86.59-1.55,0-2.47-1.01-2.47-2.71,0-2.45,1.97-3.5,6.24-3.94,0-.11.02-.22.02-.31,0-1.66-1.01-2.6-2.63-2.6-1.44,0-1.97.48-2.21,1.88l-.61-.13.04-1.47c1.29-.85,2.28-1.4,3.57-1.4,2.69,0,3.59,1.2,3.59,3.81v4.51ZM112.45,70.83c0,1.16.63,1.79,1.77,1.79,1.01,0,1.82-.57,2.71-1.71v-2.93c-3.11.42-4.49,1.12-4.49,2.84Z"/>
    <path class="cls-1" d="M122.97,60.44c0-1.05-.11-1.23-.96-1.23-.22,0-.48,0-.77.02v-.61c.9-.13,2.01-.37,3.35-.85l.24.07v7.48l1.33-1.16c.63-.57,1.36-.79,2.28-.79,2.43,0,3.48,1.33,3.48,4.14v3.96c0,1.29.04,1.58,1.62,1.62v.63c-1.03-.04-1.66-.07-1.88-.07-.57,0-1.16.02-1.77.07.09-.9.11-1.62.11-2.17v-4.07c0-1.84-.81-2.78-2.47-2.78-1.51,0-2.63.88-2.63,2.45v4.62c0,1.2.04,1.31,1.66,1.31v.63c-1.31-.07-2.21-.11-2.74-.11-.88,0-1.71.04-2.54.11v-.63c1.64,0,1.68-.15,1.68-1.55v-11.09Z"/>
    <path class="cls-1" d="M134.5,73.08c1.47-.09,1.64-.13,1.64-1.33v-5.95c0-.96-.22-1.01-1.62-1.03v-.57c1.27-.2,2.34-.5,3.15-.88l.35.11v1.82l1.27-1.2c.57-.55,1.25-.7,2.19-.7,1.27,0,2.23.66,2.91,1.99l1.12-1.07c.7-.66,1.44-.9,2.47-.9,2.08,0,3.15,1.27,3.15,3.83v4.53c0,1.18.13,1.33,1.55,1.36v.63c-.46-.04-.98-.07-1.64-.07-.74,0-1.36.02-1.82.07v-6.17c0-1.9-.72-2.84-2.23-2.84-1.6,0-2.45.88-2.45,2.52v4.07c0,1.58,0,1.73,1.79,1.79v.63c-.92-.07-1.79-.11-2.67-.11-.92,0-1.84.04-2.73.11v-.63c1.77-.07,1.77-.22,1.77-1.86v-4c0-1.73-.72-2.52-2.32-2.52-1.33,0-2.39.98-2.39,2.3v4.77c0,1.12.24,1.31,1.44,1.31h.22v.63c-.66-.07-1.51-.07-2.56-.07s-1.9,0-2.6.07v-.63Z"/>
    <path class="cls-1" d="M155.18,66.45c0-1.4-.04-1.62-1.44-1.62h-.24v-.61c1.18-.18,2.28-.44,3.28-.92l.35.13v7.99c0,1.42.09,1.66,1.49,1.66h.2v.63c-.7-.07-1.58-.07-2.65-.07s-2.01,0-2.65.07v-.63h.2c1.23,0,1.47-.22,1.47-1.33v-5.29ZM155.99,58.6c.68,0,1.23.55,1.23,1.23s-.55,1.2-1.23,1.2-1.23-.53-1.23-1.2.55-1.23,1.23-1.23Z"/>
  </g>
  <g>
    <path class="cls-2" d="M52.98,93.12l.48.02v.18c0,1.35.65,1.91,2.37,1.91,1.53,0,2.42-.86,2.42-2.27,0-1.28-.65-1.62-2.09-1.91-1.08-.21-1.95-.32-2.52-.74-.6-.45-.92-1.1-.92-1.92,0-1.92,1.47-3.29,3.65-3.29.86,0,1.73.21,2.52.6-.11.74-.18,1.43-.2,2.12l-.48.02v-.15c0-1.35-.6-1.97-2.06-1.97-1.29,0-2.16.87-2.16,2.12,0,1.14.62,1.59,2.01,1.88,1.07.21,1.98.29,2.63.75.59.44.86,1.01.86,1.8,0,2.1-1.82,3.75-4.37,3.75-.77,0-1.53-.18-2.28-.53.08-.68.14-1.47.14-2.37Z"/>
    <path class="cls-2" d="M64.36,88.65c2.1,0,3.41,1.37,3.41,3.5,0,2.33-1.58,3.87-3.81,3.87-2.03,0-3.32-1.41-3.32-3.66s1.43-3.71,3.72-3.71ZM64.35,95.49c1.34,0,2.04-.93,2.04-2.78,0-2.27-.89-3.57-2.22-3.57s-2.18.93-2.18,2.67c0,2.3.96,3.68,2.36,3.68Z"/>
    <path class="cls-2" d="M68.65,95.37c1.13-.03,1.17-.15,1.17-1.22v-4.22h-1.14v-.24c.44-.15.83-.33,1.14-.53v-.38c0-.81.06-1.46.51-2.12.81-1.2,1.62-1.82,2.33-1.82.26,0,.47.05.65.14l-.02,1.17-.15.08c-.21-.23-.59-.36-1.11-.36-.6,0-.93.44-.93,1.25v2.13c.89-.02,1.58-.05,2.06-.1l-.09.78h-1.92v4.31c0,1.01.08,1.07,1.38,1.13v.44c-.47-.03-1.11-.05-1.92-.05-.87,0-1.52,0-1.95.05v-.44Z"/>
    <path class="cls-2" d="M74.67,89.94h-1.05v-.26c.36-.1.74-.27,1.11-.51,0-.71,0-1.46-.03-2.22.42-.18.81-.38,1.2-.59l.21.14c-.11.83-.14,1.74-.14,2.76.74,0,1.4-.05,2-.1l-.08.78h-1.94v3.39c0,1.25.17,1.77,1.02,1.77.23,0,.54-.04.92-.12l.09.21c-.26.23-.59.45-.95.68-.3.07-.56.12-.75.12-1.31,0-1.62-.54-1.62-1.98v-4.07Z"/>
    <path class="cls-2" d="M79.79,91.24c-.39-1.34-.48-1.95-1.37-1.95h-.1v-.44c.5.05,1.01.06,1.53.06.83,0,1.49-.03,1.98-.06v.44c-.8,0-1.08.03-1.08.42,0,.18.08.48.2.89l1.07,3.57,2.36-5.4h.35c.26.75.53,1.35.72,1.85l1.44,3.68,1.17-3.11c.27-.74.38-1.25.38-1.44,0-.35-.3-.35-1.08-.45v-.44c.53.03,1.01.06,1.46.06.57,0,1.05-.03,1.46-.06v.44h-.08c-.57,0-.99.63-1.5,1.97l-1.26,3.23c-.26.65-.44,1.14-.53,1.46h-.74l-1.98-5.13-1.56,3.41c-.32.68-.54,1.26-.68,1.73h-.74l-1.41-4.7Z"/>
    <path class="cls-2" d="M96.55,94.35c0,.89.04,1.01,1.01,1.01v.45c-.36-.03-.74-.05-1.13-.05-.23,0-.59.02-1.07.05v-1.23l-1.34.99c-.33.26-.8.41-1.28.41-1.07,0-1.7-.69-1.7-1.86,0-1.68,1.35-2.4,4.28-2.7,0-.07.02-.15.02-.21,0-1.14-.69-1.79-1.8-1.79-.99,0-1.35.33-1.52,1.29l-.42-.09.03-1.01c.89-.59,1.56-.96,2.45-.96,1.85,0,2.46.83,2.46,2.61v3.09ZM92.25,93.83c0,.8.44,1.23,1.22,1.23.69,0,1.25-.39,1.86-1.17v-2.01c-2.13.29-3.08.77-3.08,1.95Z"/>
    <path class="cls-2" d="M99.5,91.06c0-1.11-.02-1.35-.96-1.35h-.3l-.02-.39c.84-.07,1.59-.27,2.25-.57l.26.03v1.55l.48-.54c.54-.62.9-1.07,1.55-1.07.17,0,.42.05.77.15-.09.56-.15,1.11-.15,1.65v.2h-.33c-.24-.5-.51-.69-1.01-.69-.78,0-1.26.65-1.26,1.91v2.03c0,1.14.03,1.43,1.04,1.43.1,0,.23-.02.36-.02v.44c-.41-.05-.84-.05-1.29-.05h-.69c-.95,0-1.59.02-1.97.05v-.44c.11,0,.21.02.3.02.95,0,.98-.3.98-1.37v-2.96Z"/>
    <path class="cls-2" d="M107.65,96c-2.21,0-3.38-1.25-3.38-3.63,0-1.23.36-2.16,1.01-2.7.81-.68,1.64-1.02,2.45-1.02,1.7,0,2.81,1.14,2.81,2.67,0,.35-.66.89-2.09.89h-2.79v.05c0,1.89.98,2.96,2.64,2.96.72,0,1.38-.21,1.91-.62l.14.09c-.09.1-.17.29-.26.54-.71.53-1.5.78-2.43.78ZM107.89,91.65c.42,0,.84,0,1.28-.02.02-.14.02-.27.02-.41,0-1.37-.59-2.07-1.7-2.07-1.19,0-1.83.83-1.85,2.45.75.03,1.49.05,2.25.05Z"/>
    <path class="cls-2" d="M111.86,93.83v-.23h.41c-.02.1-.02.21-.02.32,0,1.07.59,1.58,1.83,1.58.93,0,1.55-.6,1.55-1.37s-.56-1.04-1.62-1.31c-1.47-.38-2.25-.72-2.25-1.95,0-1.31.96-2.19,2.57-2.19.68,0,1.26.1,1.83.33-.05.29-.08.66-.08,1.16,0,.18,0,.38.01.59h-.38c0-.06.02-.12.02-.18,0-.9-.66-1.4-1.74-1.4-.77,0-1.28.45-1.28,1.14,0,.75.56.99,1.65,1.26,1.59.38,2.33.71,2.33,1.86,0,1.49-1.13,2.55-2.85,2.55-.72,0-1.44-.09-2.16-.29.09-.32.18-.95.18-1.88Z"/>
    <path class="cls-2" d="M124.5,96c-1.71,0-2.93-1.23-2.93-2.85,0-1.29.72-2.27,2.21-3.29-.3-.62-.45-1.25-.45-1.83,0-.69.24-1.25.74-1.68.71-.63,1.25-.99,1.91-.99.77,0,1.29.54,1.29,1.35,0,.96-.74,1.92-2.21,2.96.83,1.61,1.86,2.91,3.03,3.87.51-.53.77-1.2.77-1.8,0-1.11-.35-1.16-1.73-1.17l.5-.77c.56.03.99.03,1.32.03.83,0,1.82-.02,2.94-.07l-.12,1.05c-.68-.07-1.29-.12-1.82-.12h-.23c.02.15.02.33.02.54,0,.95-.39,1.82-1.2,2.67.95.66,1.85.93,2.36.93.38,0,.71-.1,1.07-.29l.14.38c-.78.57-1.22.89-1.28,1.01-.2.05-.38.08-.56.08-.8,0-1.73-.39-2.69-1.19-1.04.8-2.06,1.19-3.08,1.19ZM124.03,90.4c-.8.57-1.19,1.28-1.19,2.06,0,1.46,1.07,2.64,2.42,2.64.63,0,1.26-.23,1.86-.68-1.28-1.19-2.28-2.55-3.09-4.02ZM126.21,87.1c0-.57-.32-.95-.81-.95-.6,0-.99.5-.99,1.35,0,.53.14,1.1.41,1.7.93-.62,1.4-1.31,1.4-2.1Z"/>
    <path class="cls-2" d="M136.91,93.12l.48.02v.18c0,1.35.65,1.91,2.37,1.91,1.53,0,2.42-.86,2.42-2.27,0-1.28-.65-1.62-2.09-1.91-1.08-.21-1.95-.32-2.52-.74-.6-.45-.92-1.1-.92-1.92,0-1.92,1.47-3.29,3.65-3.29.86,0,1.73.21,2.52.6-.1.74-.18,1.43-.2,2.12l-.48.02v-.15c0-1.35-.6-1.97-2.06-1.97-1.29,0-2.16.87-2.16,2.12,0,1.14.62,1.59,2.01,1.88,1.07.21,1.98.29,2.63.75.59.44.86,1.01.86,1.8,0,2.1-1.82,3.75-4.37,3.75-.77,0-1.53-.18-2.28-.53.07-.68.14-1.47.14-2.37Z"/>
    <path class="cls-2" d="M148.29,88.65c2.1,0,3.41,1.37,3.41,3.5,0,2.33-1.58,3.87-3.81,3.87-2.03,0-3.32-1.41-3.32-3.66s1.43-3.71,3.72-3.71ZM148.28,95.49c1.34,0,2.04-.93,2.04-2.78,0-2.27-.89-3.57-2.22-3.57s-2.18.93-2.18,2.67c0,2.3.96,3.68,2.36,3.68Z"/>
    <path class="cls-2" d="M152.49,95.37c1.05,0,1.14-.14,1.14-.92v-7.57c0-.98-.04-1.04-1.16-1.04v-.42c.92-.15,1.68-.35,2.3-.57l.26.11c-.03.41-.05,1.07-.05,2.03v7.24c0,.96.06,1.14,1.01,1.14h.14v.44c-.53-.03-1.13-.05-1.82-.05-.81,0-1.43,0-1.82.05v-.44Z"/>
    <path class="cls-2" d="M157.75,90.7c0-.9-.06-.99-1.13-1.02v-.41c.89-.11,1.65-.32,2.33-.6l.21.09c-.07.8-.1,1.46-.1,1.98v2.63c0,1.13.33,1.67,1.4,1.67,1.13,0,2.03-.72,2.03-1.86v-2.72c0-.69-.12-.78-.95-.78h-.33v-.41c1.1-.12,1.92-.33,2.46-.6l.2.07c-.06.83-.08,1.43-.08,1.79v3.71c0,.98.05,1.11,1.19,1.13v.44c-.38-.03-.77-.06-1.19-.06s-.86.03-1.26.06v-1.23l-.93.8c-.48.42-1.07.63-1.8.63-1.47,0-2.04-.65-2.04-2.09v-3.21Z"/>
    <path class="cls-2" d="M166.83,89.94h-1.05v-.26c.36-.1.74-.27,1.11-.51,0-.71,0-1.46-.03-2.22.42-.18.81-.38,1.2-.59l.21.14c-.1.83-.14,1.74-.14,2.76.74,0,1.4-.05,2-.1l-.07.78h-1.94v3.39c0,1.25.17,1.77,1.02,1.77.23,0,.54-.04.92-.12l.09.21c-.26.23-.59.45-.95.68-.3.07-.56.12-.75.12-1.31,0-1.62-.54-1.62-1.98v-4.07Z"/>
    <path class="cls-2" d="M171.68,90.82c0-.96-.03-1.11-.99-1.11h-.17v-.42c.81-.12,1.56-.3,2.25-.63l.24.09v5.48c0,.98.06,1.14,1.02,1.14h.14v.44c-.48-.05-1.08-.05-1.82-.05s-1.38,0-1.82.05v-.44h.14c.84,0,1.01-.15,1.01-.92v-3.63ZM172.23,85.43c.47,0,.84.38.84.84s-.38.83-.84.83-.84-.36-.84-.83.38-.84.84-.84Z"/>
    <path class="cls-2" d="M178.64,88.65c2.1,0,3.41,1.37,3.41,3.5,0,2.33-1.58,3.87-3.81,3.87-2.03,0-3.32-1.41-3.32-3.66s1.43-3.71,3.72-3.71ZM178.63,95.49c1.34,0,2.04-.93,2.04-2.78,0-2.27-.89-3.57-2.22-3.57s-2.18.93-2.18,2.67c0,2.3.96,3.68,2.36,3.68Z"/>
    <path class="cls-2" d="M184.12,90.54c0-.72-.07-.86-.66-.86-.15,0-.33.02-.53.03v-.42c.62-.09,1.38-.27,2.3-.6l.18.05-.02,1.31.92-.8c.5-.44.95-.54,1.59-.54,1.65,0,2.36.92,2.36,2.84v2.72c0,.89.03,1.08,1.11,1.11v.44c-.71-.03-1.14-.05-1.29-.05-.39,0-.8.02-1.22.05.06-.62.07-1.11.07-1.49v-2.79c0-1.26-.56-1.91-1.7-1.91-1.04,0-1.8.6-1.8,1.68v3.17c0,.83.03.9,1.14.9v.44c-.9-.05-1.52-.08-1.88-.08-.6,0-1.17.03-1.74.08v-.44c1.13,0,1.16-.11,1.16-1.07v-3.77Z"/>
    <path class="cls-2" d="M192.44,93.83v-.23h.41c-.02.1-.02.21-.02.32,0,1.07.59,1.58,1.83,1.58.93,0,1.55-.6,1.55-1.37s-.56-1.04-1.62-1.31c-1.47-.38-2.25-.72-2.25-1.95,0-1.31.96-2.19,2.57-2.19.68,0,1.26.1,1.83.33-.04.29-.07.66-.07,1.16,0,.18,0,.38.02.59h-.38c0-.06.02-.12.02-.18,0-.9-.66-1.4-1.74-1.4-.77,0-1.28.45-1.28,1.14,0,.75.56.99,1.65,1.26,1.59.38,2.33.71,2.33,1.86,0,1.49-1.13,2.55-2.85,2.55-.72,0-1.44-.09-2.16-.29.09-.32.18-.95.18-1.88Z"/>
  </g>
  <g>
    <path class="cls-2" d="M150.55,11.09c-.76,1.39-1.53,2.77-2.29,4.16-1.3,2.36-2.6,4.72-3.89,7.08-.13.24-.29.45-.49.65-4.86,4.86-9.71,9.73-14.58,14.58-.43.43-.62.88-.62,1.49.02,4.41,0,8.82.02,13.22,0,.38-.1.47-.47.47-6.97-.01-13.94-.01-20.91,0-.36,0-.49-.08-.48-.47.02-2.6.02-5.2,0-7.8,0-.36.09-.46.46-.46,3.03.02,6.05-.01,9.08.02.77,0,1.33-.22,1.88-.77,10.62-10.64,21.26-21.26,31.89-31.89.12-.12.21-.25.31-.38.03.03.06.06.09.09Z"/>
    <path class="cls-1" d="M136.3,13.32c-.12.09-.25.16-.36.27-5.25,5.24-10.5,10.49-15.74,15.74-.22.22-.43.32-.75.32-4.05-.01-8.1-.01-12.16,0-.39,0-.47-.12-.46-.48.04-1.78-.07-3.56.15-5.33.44-3.58,1.93-6.55,5-8.6,1.55-1.04,3.28-1.59,5.11-1.87,1.14-.17,2.29-.18,3.44-.18,5.08,0,10.16,0,15.24,0h.44s.05.09.08.13Z"/>
    <path class="cls-1" d="M151.84,18.53c0,.21-.12.31-.19.44-1.66,2.77-3.32,5.53-4.98,8.29-.15.24-.22.48-.22.77,0,4.28.03,8.57-.03,12.85-.04,2.8-.84,5.39-2.63,7.61-1.79,2.22-4.17,3.43-6.92,3.99-1.81.36-3.65.31-5.48.31-.18,0-.25-.06-.24-.23,0-.07,0-.14,0-.21,0-4.27,0-8.54,0-12.81,0-.25.07-.43.25-.61,6.73-6.71,13.45-13.42,20.17-20.13.08-.08.17-.16.28-.26Z"/>
    <path class="cls-1" d="M149.02,4.05c-1.8,3.01-3.66,6-5.38,9.05-1.3,2.31-2.93,4.31-4.81,6.17-7.39,7.31-14.71,14.68-22.05,22.04-.22.22-.43.32-.75.32-2.9-.01-5.81-.01-8.71,0-.35,0-.49-.06-.49-.46.02-2.89.02-5.78,0-8.67,0-.35.1-.43.43-.43,4.15.01,8.3,0,12.45.02.82,0,1.41-.23,1.99-.82,8.95-8.98,17.92-17.94,26.89-26.9.13-.13.24-.27.35-.4.02.02.05.04.07.06Z"/>
  </g>
</svg>